# xmcd
#
# Track frame offsets: 
#        150
#        38908
#        50915
#        74238
#        99461
#        120269
#        132372
#        153586
#        165626
#        187683
#        195939
#        209649
#        238849
#        255922
#        267499
#        289809
#        304816
#
# Disc length: 4388 seconds
#
# Revision: 0
# Processed by: cddbd v1.5.1PL2 Copyright (c) Steve Scherf et al.
# Submitted via: ExactAudioCopy v0.95b3
#
DISCID=fc112211
DTITLE=B.B.KING - KINGS OF BLUES
DYEAR=1900
DGENRE=Blues
TTITLE0=Why I sing the blues
TTITLE1=Every day i have the blues 
TTITLE2=Don't Answer The Door 
TTITLE3=So excited
TTITLE4=no good
TTITLE5=How Blue Can You Get 
TTITLE6=what happened
TTITLE7=Help The Poor 
TTITLE8=you're losin'me
TTITLE9=woke up this mornin'please love me
TTITLE10=please love me
TTITLE11=cryin'won't help you
TTITLE12=Sweet Little Angel 
TTITLE13=Paying The Cost To Be The Boss
TTITLE14=confessin' the blues
TTITLE15=key to my kingdom
TTITLE16=The Thrill is Gone 
EXTD=
EXTT0=
EXTT1=
EXTT2=
EXTT3=
EXTT4=
EXTT5=
EXTT6=
EXTT7=
EXTT8=
EXTT9=
EXTT10=
EXTT11=
EXTT12=
EXTT13=
EXTT14=
EXTT15=
EXTT16=
PLAYORDER=
